<svg xmlns="http://www.w3.org/2000/svg" xmlns:xlink="http://www.w3.org/1999/xlink" width="1039" height="356" viewBox="0 0 1039 356">
  <defs>
    <clipPath id="clip-Logo_1">
      <rect width="1039" height="356"/>
    </clipPath>
  </defs>
  <g id="Logo_1" data-name="Logo 1" clip-path="url(#clip-Logo_1)">
    <rect width="1039" height="356" fill="#fff"/>
    <g id="Group_53" data-name="Group 53" transform="translate(54.806 -26)">
      <text id="Bytemine" transform="translate(234.762 247.001)" font-size="155" font-family="SegoeUI, Segoe UI"><tspan x="0" y="0">Bytemine</tspan></text>
      <g id="Group_52" data-name="Group 52" transform="translate(29.194 107)">
        <path id="Path_71" data-name="Path 71" d="M210.684,367.08c.351.52.716,1.051,1.112,1.547s.818.982,1.257,1.438a17.337,17.337,0,0,0,1.382,1.309,16.743,16.743,0,0,0,1.5,1.167c.522.365,1.078.707,1.626,1.025s1.139.594,1.723.847a18.647,18.647,0,0,0,1.781.671c.609.192,1.225.368,1.843.5a17.158,17.158,0,0,0,1.88.306,18.161,18.161,0,0,0,1.9.136c.638.01,1.28-.01,1.914-.055a18.443,18.443,0,0,0,3.762-.673,18.306,18.306,0,0,0,1.812-.607,17.864,17.864,0,0,0,1.747-.79c.564-.295,1.121-.613,1.647-.951a17.573,17.573,0,0,0,1.56-1.117,17.159,17.159,0,0,0,1.43-1.24c.455-.439.9-.916,1.305-1.4a18.49,18.49,0,0,0,1.179-1.507,19.054,19.054,0,0,0,1.025-1.624c.3-.557.583-1.137.847-1.725a18.833,18.833,0,0,0,.671-1.781q.288-.911.492-1.839c.135-.618.239-1.256.317-1.884s.112-1.273.138-1.9c.01-.637-.011-1.28-.056-1.914s-.13-1.273-.237-1.89a18.664,18.664,0,0,0-.436-1.874c-.173-.612-.372-1.218-.605-1.812s-.508-1.177-.791-1.746-.61-1.11-.95-1.647-.716-1.052-1.113-1.547-.817-.984-1.256-1.44-.905-.9-1.382-1.309-1-.81-1.507-1.179c-.535-.362-1.078-.708-1.622-1.012a18.907,18.907,0,0,0-1.723-.849c-.585-.253-1.19-.485-1.8-.679a18.685,18.685,0,0,0-1.839-.492q-.93-.2-1.872-.321c-.626-.066-1.272-.114-1.909-.122a14.824,14.824,0,0,0-1.9.053,18.293,18.293,0,0,0-1.9.24,18.968,18.968,0,0,0-5.418,1.829,15.25,15.25,0,0,0-1.659.953c-.525.338-1.054.716-1.552,1.1s-.983.817-1.438,1.257-.892.9-1.31,1.382a18.807,18.807,0,0,0-1.163,1.515,18.421,18.421,0,0,0-1.023,1.626,17.7,17.7,0,0,0-1.518,3.5,15.8,15.8,0,0,0-.493,1.839c-.134.618-.239,1.254-.317,1.884s-.115,1.26-.138,1.9.008,1.267.053,1.9.13,1.272.24,1.9a18.786,18.786,0,0,0,.431,1.861,19.1,19.1,0,0,0,.612,1.824c.231.581.5,1.166.786,1.733S210.342,366.541,210.684,367.08Z" transform="translate(-188.188 -251.143)" fill="#f6234e"/>
        <path id="Path_72" data-name="Path 72" d="M333.961,323.6a55.235,55.235,0,0,0-68.1-38.083c-.444.125-.87.285-1.3.439l-54.9,15.519a19.473,19.473,0,0,0,10.6,37.477l56.215-15.892c.223-.062.431-.149.649-.219a16.218,16.218,0,0,1,8.162,31.385,19.473,19.473,0,0,0,10.595,37.477,16.227,16.227,0,1,1,8.828,31.231L248.491,438.83a19.472,19.472,0,1,0,10.593,37.476L315.3,460.414a55.13,55.13,0,0,0,15.711-98.876A54.919,54.919,0,0,0,333.961,323.6Z" transform="translate(-195.482 -283.434)"/>
      </g>
    </g>
  </g>
</svg>
